<mxfile host="drawio-plugin" modified="2023-11-29T11:51:25.655Z" agent="5.0 (Windows NT 10.0; Win64; x64) AppleWebKit/537.36 (KHTML, like Gecko) Chrome/111.0.0.0 Safari/537.36" etag="KtMsq1St8vlvbqPDsD-t" version="20.5.3" type="embed"><diagram name="products_db" id="9f46799a-70d6-7492-0946-bef42562c5a5"><mxGraphModel dx="1129" dy="551" grid="1" gridSize="10" guides="1" tooltips="1" connect="1" arrows="1" fold="1" page="1" pageScale="1" pageWidth="1100" pageHeight="850" background="none" math="0" shadow="0"><root><mxCell id="0"/><mxCell id="1" parent="0"/><mxCell id="78961159f06e98e8-17" value="Таблица: counterparty&lt;br style=&quot;font-size: 14px;&quot;&gt;(Контрагент - организация, физ.лицо)" style="swimlane;html=1;fontStyle=1;align=center;verticalAlign=top;childLayout=stackLayout;horizontal=1;startSize=47;horizontalStack=0;resizeParent=1;resizeLast=0;collapsible=1;marginBottom=0;swimlaneFillColor=#ffffff;rounded=0;shadow=1;comic=0;labelBackgroundColor=none;strokeWidth=3;fillColor=#e3c800;fontFamily=Verdana;fontSize=14;strokeColor=#B09500;glass=0;spacing=2;fontColor=#000000;" parent="1" vertex="1"><mxGeometry x="630" y="295" width="370" height="229" as="geometry"/></mxCell><mxCell id="78961159f06e98e8-21" value="+ id: INTEGER&amp;nbsp; &amp;nbsp; &amp;nbsp; &amp;nbsp; &amp;nbsp;PRIMARY KEY" style="text;html=1;strokeColor=none;fillColor=none;align=left;verticalAlign=top;spacingLeft=4;spacingRight=4;whiteSpace=wrap;overflow=hidden;rotatable=0;points=[[0,0.5],[1,0.5]];portConstraint=eastwest;fontSize=14;fontColor=#000000;rounded=0;" parent="78961159f06e98e8-17" vertex="1"><mxGeometry y="47" width="370" height="26" as="geometry"/></mxCell><mxCell id="78961159f06e98e8-23" value="+ name: TEXT -&amp;nbsp; Название контрагента" style="text;html=1;strokeColor=none;fillColor=none;align=left;verticalAlign=top;spacingLeft=4;spacingRight=4;whiteSpace=wrap;overflow=hidden;rotatable=0;points=[[0,0.5],[1,0.5]];portConstraint=eastwest;fontSize=14;fontColor=#000000;rounded=0;" parent="78961159f06e98e8-17" vertex="1"><mxGeometry y="73" width="370" height="26" as="geometry"/></mxCell><mxCell id="78961159f06e98e8-25" value="+ inn:&amp;nbsp;TEXT (12) - ИНН контрагента" style="text;html=1;strokeColor=none;fillColor=none;align=left;verticalAlign=top;spacingLeft=4;spacingRight=4;whiteSpace=wrap;overflow=hidden;rotatable=0;points=[[0,0.5],[1,0.5]];portConstraint=eastwest;fontSize=14;fontColor=#000000;rounded=0;" parent="78961159f06e98e8-17" vertex="1"><mxGeometry y="99" width="370" height="26" as="geometry"/></mxCell><mxCell id="78961159f06e98e8-26" value="+ kpp: TEXT (9) - КПП контрагента" style="text;html=1;strokeColor=none;fillColor=none;align=left;verticalAlign=top;spacingLeft=4;spacingRight=4;whiteSpace=wrap;overflow=hidden;rotatable=0;points=[[0,0.5],[1,0.5]];portConstraint=eastwest;fontSize=14;fontColor=#000000;rounded=0;" parent="78961159f06e98e8-17" vertex="1"><mxGeometry y="125" width="370" height="26" as="geometry"/></mxCell><mxCell id="78961159f06e98e8-24" value="+ address: TEXT - Адрес" style="text;html=1;strokeColor=none;fillColor=none;align=left;verticalAlign=top;spacingLeft=4;spacingRight=4;whiteSpace=wrap;overflow=hidden;rotatable=0;points=[[0,0.5],[1,0.5]];portConstraint=eastwest;fontSize=14;fontColor=#000000;rounded=0;" parent="78961159f06e98e8-17" vertex="1"><mxGeometry y="151" width="370" height="26" as="geometry"/></mxCell><mxCell id="mwEhMhxDwwVT-iF93GsR-4" value="+ phone: TEXT - Телефон" style="text;html=1;strokeColor=none;fillColor=none;align=left;verticalAlign=top;spacingLeft=4;spacingRight=4;whiteSpace=wrap;overflow=hidden;rotatable=0;points=[[0,0.5],[1,0.5]];portConstraint=eastwest;fontSize=14;fontColor=#000000;rounded=0;" parent="78961159f06e98e8-17" vertex="1"><mxGeometry y="177" width="370" height="26" as="geometry"/></mxCell><mxCell id="78961159f06e98e8-20" value="+ phone: TEXT - Телефон" style="text;html=1;strokeColor=none;fillColor=none;align=left;verticalAlign=top;spacingLeft=4;spacingRight=4;whiteSpace=wrap;overflow=hidden;rotatable=0;points=[[0,0.5],[1,0.5]];portConstraint=eastwest;fontSize=14;fontColor=#000000;rounded=0;" parent="78961159f06e98e8-17" vertex="1"><mxGeometry y="203" width="370" height="26" as="geometry"/></mxCell><mxCell id="QPFQ8lZu__LDGajFP-Wq-2" value="Таблица: products&lt;br style=&quot;font-size: 14px;&quot;&gt;(Товары)" style="swimlane;html=1;fontStyle=1;align=center;verticalAlign=top;childLayout=stackLayout;horizontal=1;startSize=47;horizontalStack=0;resizeParent=1;resizeLast=0;collapsible=1;marginBottom=0;swimlaneFillColor=#ffffff;rounded=0;shadow=1;comic=0;labelBackgroundColor=none;strokeWidth=3;fillColor=#a20025;fontFamily=Verdana;fontSize=14;strokeColor=#6F0000;glass=0;spacing=2;fontColor=#ffffff;" parent="1" vertex="1"><mxGeometry x="130" y="310" width="380" height="177" as="geometry"/></mxCell><mxCell id="QPFQ8lZu__LDGajFP-Wq-3" value="+ id: INTEGER&amp;nbsp; &amp;nbsp; &amp;nbsp; &amp;nbsp; &amp;nbsp;PRIMARY KEY" style="text;html=1;strokeColor=none;fillColor=none;align=left;verticalAlign=top;spacingLeft=4;spacingRight=4;whiteSpace=wrap;overflow=hidden;rotatable=0;points=[[0,0.5],[1,0.5]];portConstraint=eastwest;fontSize=14;fontColor=#000000;rounded=0;" parent="QPFQ8lZu__LDGajFP-Wq-2" vertex="1"><mxGeometry y="47" width="380" height="26" as="geometry"/></mxCell><mxCell id="QPFQ8lZu__LDGajFP-Wq-4" value="+ name: TEXT -&amp;nbsp; Название товара" style="text;html=1;strokeColor=none;fillColor=none;align=left;verticalAlign=top;spacingLeft=4;spacingRight=4;whiteSpace=wrap;overflow=hidden;rotatable=0;points=[[0,0.5],[1,0.5]];portConstraint=eastwest;fontSize=14;fontColor=#000000;rounded=0;" parent="QPFQ8lZu__LDGajFP-Wq-2" vertex="1"><mxGeometry y="73" width="380" height="26" as="geometry"/></mxCell><mxCell id="QPFQ8lZu__LDGajFP-Wq-5" value="+ number: INTEGER - Количество товара" style="text;html=1;strokeColor=none;fillColor=none;align=left;verticalAlign=top;spacingLeft=4;spacingRight=4;whiteSpace=wrap;overflow=hidden;rotatable=0;points=[[0,0.5],[1,0.5]];portConstraint=eastwest;fontSize=14;fontColor=#000000;rounded=0;" parent="QPFQ8lZu__LDGajFP-Wq-2" vertex="1"><mxGeometry y="99" width="380" height="26" as="geometry"/></mxCell><mxCell id="QPFQ8lZu__LDGajFP-Wq-7" value="+ unit:&amp;nbsp; &amp;nbsp;TEXT (3) DEFAULT ('шт.') - Единица измерения" style="text;html=1;strokeColor=none;fillColor=none;align=left;verticalAlign=top;spacingLeft=4;spacingRight=4;whiteSpace=wrap;overflow=hidden;rotatable=0;points=[[0,0.5],[1,0.5]];portConstraint=eastwest;fontSize=14;fontColor=#000000;rounded=0;" parent="QPFQ8lZu__LDGajFP-Wq-2" vertex="1"><mxGeometry y="125" width="380" height="26" as="geometry"/></mxCell><mxCell id="QPFQ8lZu__LDGajFP-Wq-6" value="+ price: INTEGER - Цена товара" style="text;html=1;strokeColor=none;fillColor=none;align=left;verticalAlign=top;spacingLeft=4;spacingRight=4;whiteSpace=wrap;overflow=hidden;rotatable=0;points=[[0,0.5],[1,0.5]];portConstraint=eastwest;fontSize=14;fontColor=#000000;rounded=0;" parent="QPFQ8lZu__LDGajFP-Wq-2" vertex="1"><mxGeometry y="151" width="380" height="26" as="geometry"/></mxCell><mxCell id="QPFQ8lZu__LDGajFP-Wq-9" value="Таблица: trade&lt;br style=&quot;font-size: 14px;&quot;&gt;(Сделка)" style="swimlane;html=1;fontStyle=1;align=center;verticalAlign=top;childLayout=stackLayout;horizontal=1;startSize=47;horizontalStack=0;resizeParent=1;resizeLast=0;collapsible=1;marginBottom=0;swimlaneFillColor=#ffffff;rounded=0;shadow=1;comic=0;labelBackgroundColor=none;strokeWidth=3;fillColor=#60a917;fontFamily=Verdana;fontSize=14;strokeColor=#2D7600;glass=0;spacing=2;fontColor=#ffffff;" parent="1" vertex="1"><mxGeometry x="640" y="30" width="390" height="177" as="geometry"/></mxCell><mxCell id="QPFQ8lZu__LDGajFP-Wq-10" value="+ id: INTEGER&amp;nbsp; &amp;nbsp; &amp;nbsp; &amp;nbsp; &amp;nbsp;PRIMARY KEY" style="text;html=1;strokeColor=none;fillColor=none;align=left;verticalAlign=top;spacingLeft=4;spacingRight=4;whiteSpace=wrap;overflow=hidden;rotatable=0;points=[[0,0.5],[1,0.5]];portConstraint=eastwest;fontSize=14;fontColor=#000000;rounded=0;" parent="QPFQ8lZu__LDGajFP-Wq-9" vertex="1"><mxGeometry y="47" width="390" height="26" as="geometry"/></mxCell><mxCell id="QPFQ8lZu__LDGajFP-Wq-11" value="+ date: DATE -&amp;nbsp; Дата сделки" style="text;html=1;strokeColor=none;fillColor=none;align=left;verticalAlign=top;spacingLeft=4;spacingRight=4;whiteSpace=wrap;overflow=hidden;rotatable=0;points=[[0,0.5],[1,0.5]];portConstraint=eastwest;fontSize=14;fontColor=#000000;rounded=0;" parent="QPFQ8lZu__LDGajFP-Wq-9" vertex="1"><mxGeometry y="73" width="390" height="26" as="geometry"/></mxCell><mxCell id="QPFQ8lZu__LDGajFP-Wq-12" value="+ id_сounterparty: INTEGER - id контрагента" style="text;html=1;strokeColor=none;fillColor=none;align=left;verticalAlign=top;spacingLeft=4;spacingRight=4;whiteSpace=wrap;overflow=hidden;rotatable=0;points=[[0,0.5],[1,0.5]];portConstraint=eastwest;fontSize=14;fontColor=#000000;rounded=0;" parent="QPFQ8lZu__LDGajFP-Wq-9" vertex="1"><mxGeometry y="99" width="390" height="26" as="geometry"/></mxCell><mxCell id="QPFQ8lZu__LDGajFP-Wq-13" value="+ unit: TEXT (3) DEFAULT ('шт.') - Единица измерения" style="text;html=1;strokeColor=none;fillColor=none;align=left;verticalAlign=top;spacingLeft=4;spacingRight=4;whiteSpace=wrap;overflow=hidden;rotatable=0;points=[[0,0.5],[1,0.5]];portConstraint=eastwest;fontSize=14;fontColor=#000000;rounded=0;" parent="QPFQ8lZu__LDGajFP-Wq-9" vertex="1"><mxGeometry y="125" width="390" height="26" as="geometry"/></mxCell><mxCell id="QPFQ8lZu__LDGajFP-Wq-14" value="+ is_income: INTEGER (1) - Приход (1) / Расход (-1)" style="text;html=1;strokeColor=none;fillColor=none;align=left;verticalAlign=top;spacingLeft=4;spacingRight=4;whiteSpace=wrap;overflow=hidden;rotatable=0;points=[[0,0.5],[1,0.5]];portConstraint=eastwest;fontSize=14;fontColor=#000000;rounded=0;" parent="QPFQ8lZu__LDGajFP-Wq-9" vertex="1"><mxGeometry y="151" width="390" height="26" as="geometry"/></mxCell><mxCell id="QPFQ8lZu__LDGajFP-Wq-15" value="Таблица: trade_table&lt;br style=&quot;font-size: 14px;&quot;&gt;(таблица товаров в документе)" style="swimlane;html=1;fontStyle=1;align=center;verticalAlign=top;childLayout=stackLayout;horizontal=1;startSize=47;horizontalStack=0;resizeParent=1;resizeLast=0;collapsible=1;marginBottom=0;swimlaneFillColor=#ffffff;rounded=0;shadow=1;comic=0;labelBackgroundColor=none;strokeWidth=3;fillColor=#6a00ff;fontFamily=Verdana;fontSize=14;strokeColor=#3700CC;glass=0;spacing=2;fontColor=#ffffff;" parent="1" vertex="1"><mxGeometry x="140" y="70" width="370" height="207" as="geometry"/></mxCell><mxCell id="QPFQ8lZu__LDGajFP-Wq-16" value="+ id: INTEGER&amp;nbsp; &amp;nbsp; &amp;nbsp; &amp;nbsp; &amp;nbsp;PRIMARY KEY - id документа" style="text;html=1;strokeColor=none;fillColor=none;align=left;verticalAlign=top;spacingLeft=4;spacingRight=4;whiteSpace=wrap;overflow=hidden;rotatable=0;points=[[0,0.5],[1,0.5]];portConstraint=eastwest;fontSize=14;fontColor=#000000;rounded=0;" parent="QPFQ8lZu__LDGajFP-Wq-15" vertex="1"><mxGeometry y="47" width="370" height="26" as="geometry"/></mxCell><mxCell id="QPFQ8lZu__LDGajFP-Wq-17" value="+ id_counterparty: INTEGER -&amp;nbsp; id контрагента" style="text;html=1;strokeColor=none;fillColor=none;align=left;verticalAlign=top;spacingLeft=4;spacingRight=4;whiteSpace=wrap;overflow=hidden;rotatable=0;points=[[0,0.5],[1,0.5]];portConstraint=eastwest;fontSize=14;fontColor=#000000;rounded=0;" parent="QPFQ8lZu__LDGajFP-Wq-15" vertex="1"><mxGeometry y="73" width="370" height="26" as="geometry"/></mxCell><mxCell id="QPFQ8lZu__LDGajFP-Wq-18" value="+ id_products:&amp;nbsp; INTEGER - id товара" style="text;html=1;strokeColor=none;fillColor=none;align=left;verticalAlign=top;spacingLeft=4;spacingRight=4;whiteSpace=wrap;overflow=hidden;rotatable=0;points=[[0,0.5],[1,0.5]];portConstraint=eastwest;fontSize=14;fontColor=#000000;rounded=0;" parent="QPFQ8lZu__LDGajFP-Wq-15" vertex="1"><mxGeometry y="99" width="370" height="26" as="geometry"/></mxCell><mxCell id="QPFQ8lZu__LDGajFP-Wq-19" value="+ number: INTEGER - Количество товара" style="text;html=1;strokeColor=none;fillColor=none;align=left;verticalAlign=top;spacingLeft=4;spacingRight=4;whiteSpace=wrap;overflow=hidden;rotatable=0;points=[[0,0.5],[1,0.5]];portConstraint=eastwest;fontSize=14;fontColor=#000000;rounded=0;" parent="QPFQ8lZu__LDGajFP-Wq-15" vertex="1"><mxGeometry y="125" width="370" height="26" as="geometry"/></mxCell><mxCell id="QPFQ8lZu__LDGajFP-Wq-20" value="+ price: INTEGER - Цена товара" style="text;html=1;strokeColor=none;fillColor=none;align=left;verticalAlign=top;spacingLeft=4;spacingRight=4;whiteSpace=wrap;overflow=hidden;rotatable=0;points=[[0,0.5],[1,0.5]];portConstraint=eastwest;fontSize=14;fontColor=#000000;rounded=0;" parent="QPFQ8lZu__LDGajFP-Wq-15" vertex="1"><mxGeometry y="151" width="370" height="26" as="geometry"/></mxCell><mxCell id="QPFQ8lZu__LDGajFP-Wq-21" value="+ cost: REAL&amp;nbsp; &amp;nbsp;AS (number * price) - Вычисляемое поле" style="text;html=1;strokeColor=none;fillColor=none;align=left;verticalAlign=top;spacingLeft=4;spacingRight=4;whiteSpace=wrap;overflow=hidden;rotatable=0;points=[[0,0.5],[1,0.5]];portConstraint=eastwest;fontSize=14;fontColor=#000000;rounded=0;" parent="QPFQ8lZu__LDGajFP-Wq-15" vertex="1"><mxGeometry y="177" width="370" height="26" as="geometry"/></mxCell><mxCell id="QPFQ8lZu__LDGajFP-Wq-23" style="edgeStyle=orthogonalEdgeStyle;rounded=0;orthogonalLoop=1;jettySize=auto;html=1;entryX=0;entryY=0.5;entryDx=0;entryDy=0;fontColor=#000000;exitX=0;exitY=0.5;exitDx=0;exitDy=0;strokeWidth=3;" parent="1" source="QPFQ8lZu__LDGajFP-Wq-18" target="QPFQ8lZu__LDGajFP-Wq-3" edge="1"><mxGeometry relative="1" as="geometry"/></mxCell><mxCell id="QPFQ8lZu__LDGajFP-Wq-24" style="edgeStyle=orthogonalEdgeStyle;rounded=0;orthogonalLoop=1;jettySize=auto;html=1;entryX=0;entryY=0.5;entryDx=0;entryDy=0;fontColor=#000000;strokeWidth=3;exitX=0;exitY=0.5;exitDx=0;exitDy=0;" parent="1" source="QPFQ8lZu__LDGajFP-Wq-17" target="QPFQ8lZu__LDGajFP-Wq-10" edge="1"><mxGeometry relative="1" as="geometry"><Array as="points"><mxPoint x="120" y="156"/><mxPoint x="120" y="20"/><mxPoint x="610" y="20"/></Array></mxGeometry></mxCell><mxCell id="mwEhMhxDwwVT-iF93GsR-3" style="edgeStyle=orthogonalEdgeStyle;rounded=0;orthogonalLoop=1;jettySize=auto;html=1;exitX=1;exitY=0.5;exitDx=0;exitDy=0;strokeWidth=3;" parent="1" source="QPFQ8lZu__LDGajFP-Wq-17" target="78961159f06e98e8-21" edge="1"><mxGeometry relative="1" as="geometry"><Array as="points"><mxPoint x="550" y="156"/><mxPoint x="550" y="355"/></Array></mxGeometry></mxCell></root></mxGraphModel></diagram></mxfile>